inDegrees=no
num_controls=7
num_derivatives=13
num_iterations=156
num_multipliers=7
num_parameters=0
num_slacks=7
num_states=26
objective=0.433955
objective_accelerations=0.045852
objective_balance=0.006801
objective_effort=0.029385
objective_height=0.350635
objective_ligament=0.001281
solver_duration=2017.908928
status=Solve_Succeeded
success=true
DataType=double
version=3
OpenSimVersion=4.5
endheader
time	/jointset/ground_pelvis/pelvis_tilt/value	/jointset/ground_pelvis/pelvis_tx/value	/jointset/ground_pelvis/pelvis_ty/value	/jointset/hip_l/hip_flexion_l/value	/jointset/hip_l/hip_adduction_l/value	/jointset/hip_l/hip_rotation_l/value	/jointset/back/lumbar_extension/value	/jointset/patellofemoral_l/patellar_flexion_l/value	/jointset/knee_l/knee_flexion_l/value	/jointset/knee_l/knee_adduction_l/value	/jointset/knee_l/knee_rotation_l/value	/jointset/ankle_l/ankle_angle_l/value	/jointset/subtalar_l/subtalar_angle_l/value	/jointset/ground_pelvis/pelvis_tilt/speed	/jointset/ground_pelvis/pelvis_tx/speed	/jointset/ground_pelvis/pelvis_ty/speed	/jointset/hip_l/hip_flexion_l/speed	/jointset/hip_l/hip_adduction_l/speed	/jointset/hip_l/hip_rotation_l/speed	/jointset/back/lumbar_extension/speed	/jointset/patellofemoral_l/patellar_flexion_l/speed	/jointset/knee_l/knee_flexion_l/speed	/jointset/knee_l/knee_adduction_l/speed	/jointset/knee_l/knee_rotation_l/speed	/jointset/ankle_l/ankle_angle_l/speed	/jointset/subtalar_l/subtalar_angle_l/speed	/forceset/tau_hip_flexion_l	/forceset/tau_hip_adduction_l	/forceset/tau_hip_rotation_l	/forceset/tau_knee_flexion_l	/forceset/tau_ankle_angle_l	/forceset/tau_subtalar_angle_l	/forceset/tau_lumbar_extension	lambda_cid13_p0	lambda_cid13_p1	lambda_cid13_p2	lambda_cid13_p3	lambda_cid13_p4	lambda_cid13_p5	lambda_cid14_p0	/jointset/ground_pelvis/pelvis_tilt/accel	/jointset/ground_pelvis/pelvis_tx/accel	/jointset/ground_pelvis/pelvis_ty/accel	/jointset/hip_l/hip_flexion_l/accel	/jointset/hip_l/hip_adduction_l/accel	/jointset/hip_l/hip_rotation_l/accel	/jointset/back/lumbar_extension/accel	/jointset/patellofemoral_l/patellar_flexion_l/accel	/jointset/knee_l/knee_flexion_l/accel	/jointset/knee_l/knee_adduction_l/accel	/jointset/knee_l/knee_rotation_l/accel	/jointset/ankle_l/ankle_angle_l/accel	/jointset/subtalar_l/subtalar_angle_l/accel	gamma_cid13_p0	gamma_cid13_p1	gamma_cid13_p2	gamma_cid13_p3	gamma_cid13_p4	gamma_cid13_p5	gamma_cid14_p0
0.5	-0.3225901104642424	-0.02460586631537967	0.7807712769651055	1.104914808957594	-0.3063256514873283	-0.01330483769420213	-0.3159514268789984	0.7533337512990627	0.7533337512991325	-0.1738861036236948	0.1695427687636638	0.1481569608067953	-0.02346290715167661	-0.4120621622559276	-0.1615068102788401	-0.4506854124983939	1.968228415130737	-0.007128986735372015	0.656476595455583	-0.6329581618623084	1.95510000259258	1.955100002592594	-0.004134657543777232	0.03423148786938176	0.513860509673054	0.07544903569463005	-0.1795156950224878	0.01949068428124132	-0.02596490119498776	-0.2475494948012421	0.09722573025095457	0.040603623133889	0.18055426065931	-7.046427990496736	-19.59062575225454	6.36489620882897	-0.627119491944457	-606.1949696382256	-61.9237052067102	-24.39880093595606	0.4198509709234324	0.4823651291112768	-0.3868234419595397	-1.178182650472611	0.6369842396971153	-0.3542635615470696	1.509997831387902	-1.203311903637377	-1.203311903637368	0.06803103221609665	-0.08680902204755582	-0.4373419577883441	0.6373112685656056	-4.19828456222754e-07	-5.685113137985255e-07	2.355763679694127e-06	2.43100659016274e-07	-4.829121241068337e-07	-4.530396938271218e-07	-3.866100638264862e-07
0.51	-0.3266888721648909	-0.02619659952008811	0.7762460507436367	1.124534689490879	-0.3063665866667621	-0.006756740296617095	-0.3222051028453991	0.7728211720542488	0.7728211720543494	-0.1739276147159475	0.1698803403086814	0.1532723628769068	-0.02267830185768456	-0.407641099132101	-0.1566236822229143	-0.4542635350618321	1.955478238788581	-0.001083041881566294	0.6530692019201344	-0.6176982200368619	1.942109076794809	1.94210907679482	-0.004176889927804961	0.03327282537786798	0.5091377578258269	0.08144742755268332	-0.1854714342241604	0.01997498874006625	-0.02610683529840978	-0.2501547667752279	0.0956673214959998	0.04092128536514738	0.185567081401619	-7.746918642191551	-19.52227244389257	6.258434570472209	-0.4098966201990565	-610.1095210195321	-61.67564940373031	-23.23570093834455	0.4605599288061357	0.4937549241104712	-0.328952755441825	-1.363900030701997	0.5843700416956401	-0.3453592256804936	1.545814065275317	-1.388170430869012	-1.388170430869588	-0.04173527561476721	-0.1023332339706945	-0.502057938995126	0.5772362904989532	-3.764032397698816e-07	-4.972635968903162e-07	2.160844697610734e-06	2.227128373873679e-07	-4.327045119282536e-07	-3.688936930321424e-07	-3.528073774636759e-07
0.52	-0.3307419580451625	-0.02773800778818184	0.7716879140781524	1.144018975279819	-0.3063478683109633	-0.0002449932296137032	-0.328303815052115	0.7921704460488528	0.7921704460489842	-0.1739698251124208	0.1702079375545306	0.158338074200385	-0.02183448601589723	-0.4029269981805194	-0.1516418229558993	-0.4572675013015045	1.941109466261826	0.004801720311173083	0.6492065293392163	-0.6019654099253227	1.927470650476154	1.927470650476161	-0.004274518387935076	0.03223662803565785	0.50392236034639	0.08729114525368722	-0.1914271734258328	0.02045929319889139	-0.02624876940182985	-0.2527600387492138	0.09410891274104502	0.04123894759640603	0.1905799021439282	-8.451129471238897	-19.45606046293774	6.155505817579049	-0.2135154944398751	-614.1083266113696	-61.50868916059304	-22.06967721341336	0.4784585364744434	0.5021113713290979	-0.2719921772063911	-1.50190188739247	0.604747707483847	-0.4453193706409544	1.604571488606509	-1.532812007814153	-1.532812007814236	0.05695181699562035	-0.1023159921868249	-0.5358710842303145	0.6063764371557298	-3.414897926299909e-07	-4.325044716386188e-07	2.010089585834042e-06	2.078453861408668e-07	-3.916798081934941e-07	-2.966634920341988e-07	-3.258048465427569e-07
0.53	-0.3347465271146842	-0.02922918333156127	0.7671026248850189	1.163351800157501	-0.3062709450555045	0.006225632556152724	-0.3342428979559315	0.8113654111687931	0.8113654111688536	-0.1740127416753218	0.1705249126685298	0.1633493157478888	-0.02093281547532305	-0.3979408319293554	-0.1465843073233254	-0.4596913235619975	1.92519989047141	0.01055525981953918	0.6448371381273753	-0.5857846580921046	1.911261884506754	1.911261884506771	-0.0043065450509152	0.03115532828524847	0.4982483473700156	0.09301504325735002	-0.1973331180012281	0.02086739020849615	-0.02632737496388045	-0.2553007599002901	0.09238368423298154	0.04140424776253188	0.195510085345549	-9.214067401765343	-19.30652315383604	6.031441997502542	0.09534130317353799	-618.0889572639478	-61.21981904623807	-20.90225298098184	0.5155643263368355	0.5089584259579208	-0.212799212289172	-1.673866367637452	0.5562569177046806	-0.4452502137811428	1.634803942564246	-1.703919917936071	-1.703919917934533	-0.03293077187062877	-0.111877899488963	-0.5947980107398739	0.5510455530386011	-3.102171066638096e-07	-3.584045381514538e-07	1.879078183012179e-06	1.968045584679413e-07	-3.549333789241308e-07	-2.259548798669635e-07	-3.007881654687737e-07
